HIERARCHY
ROOT hip
{
  OFFSET 0 0 0
  CHANNELS 6 Xposition Yposition Zposition Zrotation Yrotation Xrotation
  JOINT abdomen
  {
    OFFSET 0 20.6881 -0.73152
    CHANNELS 3 Zrotation Xrotation Yrotation
    JOINT chest
    {
      OFFSET 0 11.7043 -0.48768
      CHANNELS 3 Zrotation Xrotation Yrotation
      JOINT neck
      {
        OFFSET 0 22.1894 -2.19456
        CHANNELS 3 Zrotation Xrotation Yrotation
        JOINT head
        {
          OFFSET -0.24384 7.07133 1.2192
          CHANNELS 3 Zrotation Xrotation Yrotation
          JOINT leftEye
          {
            OFFSET 4.14528 8.04674 8.04672
            CHANNELS 3 Zrotation Xrotation Yrotation
            End Site
            {
              OFFSET 1 0 0
            }
          }
          JOINT rightEye
          {
            OFFSET -3.6576 8.04674 8.04672
            CHANNELS 3 Zrotation Xrotation Yrotation
            End Site
            {
              OFFSET 1 0 0
            }
          }
        }
      }
      JOINT rCollar
      {
        OFFSET -2.68224 19.2634 -4.8768
        CHANNELS 3 Zrotation Xrotation Yrotation
        JOINT rShldr
        {
          OFFSET -8.77824 -1.95073 1.46304
          CHANNELS 3 Zrotation Xrotation Yrotation
          JOINT rForeArm
          {
            OFFSET -28.1742 -1.7115 0.48768
            CHANNELS 3 Zrotation Xrotation Yrotation
            JOINT rHand
            {
              OFFSET -22.5879 0.773209 7.07136
              CHANNELS 3 Zrotation Xrotation Yrotation
              JOINT rThumb1
              {
                OFFSET -1.2192 -0.487915 3.41376
                CHANNELS 3 Zrotation Xrotation Yrotation
                JOINT rThumb2
                {
                  OFFSET -3.37035 -0.52449 3.41376
                  CHANNELS 3 Zrotation Xrotation Yrotation
                  End Site
                  {
                    OFFSET -1.78271 -1.18214 1.43049
                  }
                }
              }
              JOINT rIndex1
              {
                OFFSET -7.75947 0.938293 5.60832
                CHANNELS 3 Zrotation Xrotation Yrotation
                JOINT rIndex2
                {
                  OFFSET -2.54057 -0.884171 1.56538
                  CHANNELS 3 Zrotation Xrotation Yrotation
                  End Site
                  {
                    OFFSET -1.62519 -0.234802 1.16502
                  }
                }
              }
              JOINT rMid1
              {
                OFFSET -8.24714 1.18213 3.41376
                CHANNELS 3 Zrotation Xrotation Yrotation
                JOINT rMid2
                {
                  OFFSET -3.10165 -0.590103 1.0647
                  CHANNELS 3 Zrotation Xrotation Yrotation
                  End Site
                  {
                    OFFSET -2.48547 -0.328903 0.83742
                  }
                }
              }
              JOINT rRing1
              {
                OFFSET -8.82822 0.546677 1.51678
                CHANNELS 3 Zrotation Xrotation Yrotation
                JOINT rRing2
                {
                  OFFSET -2.60934 -0.819778 -0.0198488
                  CHANNELS 3 Zrotation Xrotation Yrotation
                  End Site
                  {
                    OFFSET -2.33842 -0.294052 0.168128
                  }
                }
              }
              JOINT rPinky1
              {
                OFFSET -8.27202 -0.0477905 -0.4584
                CHANNELS 3 Zrotation Xrotation Yrotation
                JOINT rPinky2
                {
                  OFFSET -1.82734 -0.647385 -0.700984
                  CHANNELS 3 Zrotation Xrotation Yrotation
                  End Site
                  {
                    OFFSET -1.69225 -0.51767 -0.607171
                  }
                }
              }
            }
          }
        }
      }
      JOINT lCollar
      {
        OFFSET 2.68224 19.2634 -4.8768
        CHANNELS 3 Zrotation Xrotation Yrotation
        JOINT lShldr
        {
          OFFSET 8.77824 -1.95073 1.46304
          CHANNELS 3 Zrotation Xrotation Yrotation
          JOINT lForeArm
          {
            OFFSET 28.1742 -1.7115 0.48768
            CHANNELS 3 Zrotation Xrotation Yrotation
            JOINT lHand
            {
              OFFSET 22.5879 0.773209 7.07136
              CHANNELS 3 Zrotation Xrotation Yrotation
              JOINT lThumb1
              {
                OFFSET 1.2192 -0.487915 3.41376
                CHANNELS 3 Zrotation Xrotation Yrotation
                JOINT lThumb2
                {
                  OFFSET 3.37035 -0.52449 3.41376
                  CHANNELS 3 Zrotation Xrotation Yrotation
                  End Site
                  {
                    OFFSET 1.78271 -1.18214 1.43049
                  }
                }
              }
              JOINT lIndex1
              {
                OFFSET 7.75947 0.938293 5.60832
                CHANNELS 3 Zrotation Xrotation Yrotation
                JOINT lIndex2
                {
                  OFFSET 2.54057 -0.884171 1.56538
                  CHANNELS 3 Zrotation Xrotation Yrotation
                  End Site
                  {
                    OFFSET 1.62519 -0.234802 1.16502
                  }
                }
              }
              JOINT lMid1
              {
                OFFSET 8.24714 1.18213 3.41376
                CHANNELS 3 Zrotation Xrotation Yrotation
                JOINT lMid2
                {
                  OFFSET 3.10165 -0.590103 1.0647
                  CHANNELS 3 Zrotation Xrotation Yrotation
                  End Site
                  {
                    OFFSET 2.48547 -0.328903 0.83742
                  }
                }
              }
              JOINT lRing1
              {
                OFFSET 8.82822 0.546677 1.51678
                CHANNELS 3 Zrotation Xrotation Yrotation
                JOINT lRing2
                {
                  OFFSET 2.60934 -0.819778 -0.0198488
                  CHANNELS 3 Zrotation Xrotation Yrotation
                  End Site
                  {
                    OFFSET 2.33842 -0.294052 0.168128
                  }
                }
              }
              JOINT lPinky1
              {
                OFFSET 8.27202 -0.0477905 -0.4584
                CHANNELS 3 Zrotation Xrotation Yrotation
                JOINT lPinky2
                {
                  OFFSET 1.82734 -0.647385 -0.700984
                  CHANNELS 3 Zrotation Xrotation Yrotation
                  End Site
                  {
                    OFFSET 1.69225 -0.51767 -0.607171
                  }
                }
              }
            }
          }
        }
      }
    }
  }
  JOINT rButtock
  {
    OFFSET -8.77824 4.35084 1.2192
    CHANNELS 3 Zrotation Xrotation Yrotation
    JOINT rThigh
    {
      OFFSET 0 -1.70687 -2.19456
      CHANNELS 3 Zrotation Xrotation Yrotation
      JOINT rShin
      {
        OFFSET 0 -36.8199 0.73152
        CHANNELS 3 Zrotation Xrotation Yrotation
        JOINT rFoot
        {
          OFFSET 0.73152 -45.1104 -5.12064
          CHANNELS 3 Zrotation Xrotation Yrotation
          End Site
          {
            OFFSET -1.1221 -3.69964 12.103
          }
        }
      }
    }
  }
  JOINT lButtock
  {
    OFFSET 8.77824 4.35084 1.2192
    CHANNELS 3 Zrotation Xrotation Yrotation
    JOINT lThigh
    {
      OFFSET 0 -1.70687 -2.19456
      CHANNELS 3 Zrotation Xrotation Yrotation
      JOINT lShin
      {
        OFFSET 0 -36.8199 0.73152
        CHANNELS 3 Zrotation Xrotation Yrotation
        JOINT lFoot
        {
          OFFSET -0.73152 -45.1104 -5.12064
          CHANNELS 3 Zrotation Xrotation Yrotation
          End Site
          {
            OFFSET 1.1221 -3.69964 12.103
          }
        }
      }
    }
  }
}
MOTION
Frames:	9
Frame Time:	0.00833333
-5.937958 0.294601 8.759549 -205.74677 -51.29896 -169.92369 -13.380158 25.823418 14.749494 -5.180944 -11.2122 2.521417 0.523121 14.353767 13.181261 -3.472263 -19.235691 25.955065 0.295412 0.082218 -0.10783 -0.446893 -0.509262 -0.17494 0.143176 -0.132018 0.005944 64.21279 55.03822 -7.778452 -26.507042 -38.89607 81.93974 1.32175 7.373374 2.636826 0.314953 -0.014827 -0.247337 0.047656 0.103131 0.032275 0.289281 0.053603 -0.327386 7.790513 5.948151 0.906813 -0.057752 -0.017227 -0.354775 2.82641 0.872061 0.271995 1.09673 -0.480886 -0.687755 10.528708 0.416038 -0.092882 0.08292 -0.536195 0.384325 2.853638 -0.731275 0.223912 -0.40223 0.096997 -0.045501 -54.755924 29.211102 -20.863905 26.53574 -41.89194 -88.79676 2.17181 -24.900476 1.040175 0.330432 0.662104 0.526984 0.095507 0.118698 -0.495916 -0.366409 -0.121654 -0.285982 -8.065815 5.752294 -0.316229 0.145655 -0.167898 -0.277883 -2.64822 1.493334 -0.026893 -0.538893 0.402132 -0.252365 -10.140334 0.773446 -0.192059 -0.744154 -0.300348 -0.054194 -2.153309 -0.284078 -0.087251 0.07997 -0.28993 0.081828 -85.84062 -52.31727 -70.81807 -150.23093 86.887856 151.50398 2.501474 -17.45442 3.663868 0.070308 0.076113 -0.39335 41.111313 -46.825283 30.695417 5.170368 81.93805 -9.748401 4.23538 -21.992205 15.014867
-6.133412 0.183503 8.941636 -202.42743 -52.4753 -167.8854 -13.278771 25.106173 14.850762 -5.2371 -11.099028 2.714245 0.742096 14.631898 13.520086 -3.771355 -19.82568 26.073317 0.316877 0.178882 -0.092963 -0.417369 -0.599582 -0.268542 0.143015 -0.031462 0.018902 65.782684 55.560486 -9.61382 -26.641542 -39.24614 82.57759 1.298605 6.138238 2.021482 0.291836 0.012368 -0.23361 -0.048054 -0.039361 0.013642 0.242949 0.05277 -0.29423 7.765222 5.946185 0.818983 -0.001446 0.035459 -0.19699 2.864556 0.846855 0.349494 1.170758 -0.49609 -0.605556 10.400734 0.446345 -0.093642 0.193497 -0.523601 0.460547 2.787168 -0.763001 0.286524 -0.520654 0.103999 -0.013933 -54.27275 29.96708 -21.625446 26.695887 -42.10008 -88.90823 1.947506 -24.602861 1.518966 0.404441 0.660218 0.580902 0.067353 0.147777 -0.45516 -0.452813 -0.070316 -0.148237 -8.090526 5.729239 -0.39044 0.036877 -0.156186 -0.342583 -2.749346 1.482064 -0.190656 -0.484133 0.328093 -0.221255 -10.178067 0.795067 -0.322491 -0.856819 -0.364356 -0.066009 -2.218128 -0.342497 -0.157907 0.042387 -0.290786 0.107893 -84.62347 -52.6661 -69.729836 -150.91098 87.149956 152.30627 2.459304 -17.797153 3.494314 0.085963 0.058808 -0.417688 42.95571 -46.844593 32.07373 6.787832 82.63527 -11.280616 3.959494 -21.944176 14.87378
-6.343211 0.089803 8.914973 -198.5415 -52.721622 -165.08266 -13.019402 24.313725 14.970207 -5.332762 -10.962734 2.890309 0.971928 15.012362 13.886269 -4.10469 -20.288853 26.04926 0.336352 0.235912 -0.070022 -0.384415 -0.675093 -0.302567 0.10677 0.12959 0.006494 67.08522 56.279858 -10.996408 -26.97575 -39.717163 83.43016 1.133075 4.680835 1.477439 0.276148 0.024903 -0.208703 -0.128051 -0.156227 0.035235 0.204304 0.079761 -0.23753 7.771124 5.992232 0.739546 0.083145 0.070451 -0.060829 2.895393 0.797337 0.379064 1.162857 -0.519641 -0.498643 10.249457 0.478508 -0.135327 0.330494 -0.455589 0.526062 2.703802 -0.787012 0.319128 -0.619467 0.099069 0.030987 -53.788692 30.714128 -22.075974 26.83912 -42.1591 -88.90074 1.749698 -24.910208 2.243826 0.435061 0.685718 0.566845 0.029775 0.158643 -0.425067 -0.545557 -0.042438 0.010873 -8.11163 5.742314 -0.470023 -0.033187 -0.16392 -0.336562 -2.912858 1.459048 -0.342119 -0.37193 0.232831 -0.234966 -10.266166 0.835295 -0.408893 -0.948709 -0.470792 -0.093097 -2.23676 -0.447714 -0.25154 0.001526 -0.32207 0.135877 -83.31516 -52.78714 -68.192245 -150.91301 87.555824 152.4599 2.319584 -18.217808 3.409639 0.06885 0.012448 -0.446414 44.520176 -46.552048 33.19867 8.527934 82.7682 -12.935768 3.749816 -21.801716 14.940145
-6.563059 0.007513 8.711565 -194.4632 -52.006775 -161.74634 -12.628007 23.679823 15.06423 -5.414868 -10.848477 3.035129 1.199502 15.342871 14.262427 -4.417956 -20.632893 26.006369 0.339602 0.251675 -0.025921 -0.345359 -0.711992 -0.30435 0.048605 0.291047 -0.025309 67.97953 57.172977 -12.050693 -27.408573 -40.201122 84.285675 0.921746 3.296674 0.934011 0.280179 0.044064 -0.166088 -0.193056 -0.236334 0.107705 0.213432 0.111334 -0.179731 7.816567 6.082599 0.681817 0.164582 0.080414 0.017425 2.920966 0.739411 0.358228 1.085387 -0.542414 -0.403162 10.100257 0.474632 -0.178043 0.474662 -0.397319 0.580311 2.64465 -0.802482 0.327296 -0.67742 0.071881 0.075795 -53.384254 31.337452 -22.274017 26.915869 -42.108055 -88.7967 1.64188 -25.557255 3.128523 0.421482 0.692265 0.508769 -0.000215 0.146262 -0.423358 -0.614029 -0.01457 0.18042 -8.131237 5.769404 -0.552313 -0.068468 -0.182565 -0.307028 -3.080853 1.414225 -0.486955 -0.235014 0.121471 -0.290666 -10.371759 0.867694 -0.438317 -1.013101 -0.591015 -0.126128 -2.229878 -0.574837 -0.348237 -0.026715 -0.366879 0.167533 -82.30213 -52.752674 -66.734215 -150.78642 87.98205 152.43628 2.146135 -18.67192 3.471681 0.02745 -0.06793 -0.473674 45.78037 -46.050575 33.902073 10.317927 82.46031 -14.638356 3.680788 -21.543575 15.197467
-6.812221 -0.107841 8.341616 -190.15686 -50.512844 -158.00766 -12.172478 23.439093 15.046068 -5.421666 -10.791577 3.126482 1.383547 15.552486 14.564364 -4.575567 -20.898521 26.051859 0.315357 0.231936 0.057447 -0.296877 -0.699209 -0.314229 -0.029208 0.373193 -0.057599 68.496544 58.064053 -13.142238 -27.747152 -40.59531 84.996346 0.757038 2.235093 0.241571 0.30362 0.072338 -0.125516 -0.253085 -0.296387 0.22313 0.261277 0.110418 -0.159325 7.878968 6.198423 0.636696 0.208935 0.048533 0.026189 2.930664 0.719169 0.315936 0.995291 -0.55545 -0.346583 9.994855 0.434113 -0.186804 0.604939 -0.398544 0.614321 2.627386 -0.80749 0.319136 -0.663063 0.022902 0.110532 -53.21117 31.7295 -22.01241 26.951946 -41.94709 -88.60846 1.565569 -26.321178 4.02615 0.369834 0.609611 0.435884 -0.010224 0.111947 -0.452505 -0.6083 0.025599 0.34555 -8.160342 5.787956 -0.62309 -0.094549 -0.20782 -0.27498 -3.175929 1.350568 -0.629989 -0.096972 0.026283 -0.356292 -10.4616 0.872419 -0.416076 -1.032998 -0.713688 -0.144532 -2.226696 -0.708738 -0.411756 -0.044168 -0.393344 0.201183 -81.76378 -52.639145 -65.69757 -151.00856 88.296104 152.66447 2.103008 -19.131968 3.708924 -0.019711 -0.188334 -0.494691 46.704502 -45.486427 34.01833 11.991041 81.866066 -16.329456 3.779307 -21.114655 15.512877
-7.180614 -0.243 7.775806 -185.1634 -48.7825 -153.8524 -11.590324 23.703005 14.799729 -5.321446 -10.794696 3.147566 1.481668 15.647322 14.672324 -4.453788 -21.093525 26.17046 0.276484 0.172831 0.186527 -0.252926 -0.643336 -0.348566 -0.106562 0.332876 -0.091557 68.67514 58.740864 -14.408161 -27.87488 -40.79341 85.5064 0.576856 1.508732 -0.715319 0.354063 0.081564 -0.130937 -0.316445 -0.330728 0.352722 0.326881 0.069256 -0.213043 7.944026 6.330906 0.583982 0.223472 -0.029085 -0.035391 2.926411 0.781206 0.259808 0.960519 -0.556854 -0.359626 9.946724 0.405245 -0.171771 0.731151 -0.444385 0.599159 2.620624 -0.79716 0.288189 -0.520281 -0.053874 0.133647 -53.310287 31.922646 -21.238064 26.988195 -41.622536 -88.38015 1.431467 -27.23486 4.739253 0.276126 0.411882 0.365689 -0.019643 0.063923 -0.483002 -0.486977 0.073511 0.492977 -8.20501 5.782056 -0.68145 -0.133967 -0.24621 -0.272686 -3.166046 1.2914 -0.770703 0.039582 -0.001269 -0.415431 -10.528203 0.828492 -0.355822 -0.978465 -0.837465 -0.130336 -2.229031 -0.845921 -0.432788 -0.065371 -0.39683 0.251103 -81.71824 -52.492294 -65.253105 -151.90865 88.41002 153.60625 2.313445 -19.655258 4.022778 -0.060677 -0.342999 -0.53415 47.417137 -45.014812 33.59057 13.402454 80.9594 -17.97162 3.966045 -20.495523 15.652227
-7.692168 -0.331929 7.071138 -179.91893 -47.096043 -149.87532 -10.940282 24.229454 14.374695 -5.125822 -10.820656 3.113635 1.494561 15.668939 14.610254 -4.094048 -21.20376 26.287943 0.235734 0.116307 0.324848 -0.227242 -0.573364 -0.415958 -0.171612 0.220733 -0.146972 68.590324 59.120598 -15.578504 -27.873676 -40.86242 85.925285 0.36147 0.964094 -1.850875 0.416636 0.07366 -0.16364 -0.385943 -0.322527 0.487389 0.382052 0.002801 -0.300816 8.017116 6.461434 0.520622 0.209708 -0.123017 -0.139185 2.932195 0.895061 0.21987 0.963297 -0.534909 -0.416057 9.941854 0.404755 -0.150212 0.852588 -0.485683 0.554476 2.613886 -0.7675 0.222528 -0.291959 -0.15562 0.17051 -53.5505 32.061626 -20.181446 27.031034 -41.21207 -88.161156 1.233125 -28.208616 5.325966 0.167679 0.150994 0.307629 -0.059443 0.000916 -0.488709 -0.317241 0.124953 0.593868 -8.261316 5.740856 -0.730388 -0.17749 -0.30488 -0.281844 -3.086723 1.241191 -0.896264 0.175529 0.031968 -0.47828 -10.571726 0.733929 -0.289139 -0.893436 -0.941154 -0.094281 -2.211482 -0.974696 -0.420177 -0.107885 -0.41646 0.300672 -81.79613 -52.290047 -65.095535 -153.34602 88.331795 155.11246 2.68346 -20.146172 4.339012 -0.09095 -0.520526 -0.593136 47.96433 -44.675697 32.909496 14.555381 79.95249 -19.385607 4.175614 -19.831646 15.618763
-8.287012 -0.315508 6.374116 -175.67865 -45.253223 -147.18892 -10.385871 24.6209 13.952481 -4.871536 -10.835953 3.058777 1.471278 15.679425 14.497747 -3.684811 -21.285847 26.338116 0.208167 0.125061 0.432137 -0.223299 -0.52765 -0.493956 -0.233806 0.13175 -0.222821 68.37612 59.315914 -16.370077 -27.862894 -40.97542 86.41745 0.142739 0.526358 -2.825782 0.453679 0.073817 -0.179007 -0.45145 -0.274667 0.621437 0.423951 -0.042315 -0.359835 8.102206 6.555226 0.449142 0.161562 -0.201284 -0.219227 2.957337 0.997007 0.224673 0.946505 -0.489947 -0.47058 9.946968 0.419933 -0.137476 0.944702 -0.482591 0.521857 2.621338 -0.726258 0.127824 -0.099624 -0.259577 0.236139 -53.710552 32.34576 -19.231852 27.082998 -40.911606 -88.024254 1.062365 -28.992315 5.96536 0.0846 -0.078162 0.259136 -0.124469 -0.084025 -0.459194 -0.210632 0.184974 0.615069 -8.315748 5.676877 -0.759102 -0.202999 -0.379258 -0.264885 -3.002914 1.194869 -0.977184 0.284836 0.095959 -0.549721 -10.599232 0.611231 -0.239067 -0.854202 -0.99259 -0.058642 -2.164373 -1.067021 -0.402486 -0.167777 -0.473233 0.318645 -81.46259 -51.95975 -64.715836 -154.58627 88.178825 156.34726 3.004038 -20.400112 4.636826 -0.102735 -0.70334 -0.645515 48.437756 -44.533234 32.41208 15.513494 79.3819 -20.415903 4.405754 -19.40735 15.596626
-8.907232 -0.234132 5.819379 -173.394 -43.440903 -146.70094 -9.975462 24.743864 13.607276 -4.603415 -10.861098 3.015922 1.441885 15.689377 14.377381 -3.365151 -21.329126 26.297504 0.203402 0.210294 0.504629 -0.229065 -0.526349 -0.540355 -0.300508 0.083512 -0.302183 68.0574 59.40814 -16.762459 -27.853876 -41.14336 86.95746 -0.005909 0.287044 -3.33733 0.471747 0.077536 -0.180059 -0.504292 -0.217413 0.736586 0.457615 -0.043871 -0.365502 8.180816 6.59944 0.372265 0.083962 -0.269907 -0.24219 2.98218 1.06472 0.264981 0.901651 -0.432666 -0.519215 9.961555 0.439035 -0.138578 0.992022 -0.438893 0.509545 2.644868 -0.692424 0.015692 0.014821 -0.347555 0.305797 -53.798744 32.829296 -18.5758 27.108692 -40.80207 -88.00401 0.984028 -29.526253 6.56166 0.036919 -0.237494 0.22134 -0.206125 -0.185724 -0.38132 -0.209185 0.240966 0.557907 -8.345986 5.589146 -0.769294 -0.201354 -0.449168 -0.231278 -2.940861 1.141395 -1.007496 0.358042 0.189009 -0.605407 -10.610753 0.478463 -0.207217 -0.858071 -0.978139 -0.024369 -2.120175 -1.104112 -0.403277 -0.22485 -0.539955 0.298132 -80.67009 -51.520966 -64.05426 -154.97456 88.07853 156.69234 3.21216 -20.329073 4.823234 -0.09252 -0.868287 -0.680198 48.945633 -44.61721 32.266785 16.283415 79.35375 -21.081154 4.611157 -19.32475 15.634819
